<svg width="215" height="36" viewBox="0 0 215 36" fill="none" xmlns="http://www.w3.org/2000/svg">
<path d="M57.316 12.246H51.366L50.193 15H47.915L53.27 3.1H55.446L60.818 15H58.506L57.316 12.246ZM56.585 10.512L54.341 5.31L52.114 10.512H56.585ZM71.5624 15L69.1314 11.515C69.0294 11.5263 68.8764 11.532 68.6724 11.532H65.9864V15H63.7764V3.1H68.6724C69.7037 3.1 70.5991 3.27 71.3584 3.61C72.1291 3.95 72.7184 4.43733 73.1264 5.072C73.5344 5.70667 73.7384 6.46033 73.7384 7.333C73.7384 8.22833 73.5174 8.999 73.0754 9.645C72.6447 10.291 72.0214 10.7727 71.2054 11.09L73.9424 15H71.5624ZM71.5114 7.333C71.5114 6.57367 71.2621 5.99 70.7634 5.582C70.2647 5.174 69.5337 4.97 68.5704 4.97H65.9864V9.713H68.5704C69.5337 9.713 70.2647 9.509 70.7634 9.101C71.2621 8.68167 71.5114 8.09233 71.5114 7.333ZM79.904 4.97H75.96V3.1H86.058V4.97H82.114V15H79.904V4.97ZM89.1615 3.1H91.3715V15H89.1615V3.1ZM99.7242 15.17C98.8062 15.17 97.9166 15.0397 97.0552 14.779C96.2052 14.5183 95.5309 14.1727 95.0322 13.742L95.7972 12.025C96.2846 12.4103 96.8796 12.7277 97.5822 12.977C98.2962 13.215 99.0102 13.334 99.7242 13.334C100.608 13.334 101.266 13.1923 101.696 12.909C102.138 12.6257 102.359 12.2517 102.359 11.787C102.359 11.447 102.235 11.1693 101.985 10.954C101.747 10.7273 101.441 10.5517 101.067 10.427C100.693 10.3023 100.183 10.1607 99.5372 10.002C98.6306 9.78667 97.8939 9.57133 97.3272 9.356C96.7719 9.14067 96.2902 8.80633 95.8822 8.353C95.4856 7.88833 95.2872 7.265 95.2872 6.483C95.2872 5.82567 95.4629 5.23067 95.8142 4.698C96.1769 4.154 96.7152 3.72333 97.4292 3.406C98.1546 3.08867 99.0386 2.93 100.081 2.93C100.807 2.93 101.521 3.02067 102.223 3.202C102.926 3.38333 103.532 3.644 104.042 3.984L103.345 5.701C102.824 5.395 102.28 5.16267 101.713 5.004C101.147 4.84533 100.597 4.766 100.064 4.766C99.1916 4.766 98.5399 4.91333 98.1092 5.208C97.6899 5.50267 97.4802 5.89367 97.4802 6.381C97.4802 6.721 97.5992 6.99867 97.8372 7.214C98.0866 7.42933 98.3982 7.59933 98.7722 7.724C99.1462 7.84867 99.6562 7.99033 100.302 8.149C101.186 8.353 101.912 8.56833 102.478 8.795C103.045 9.01033 103.527 9.34467 103.923 9.798C104.331 10.2513 104.535 10.8633 104.535 11.634C104.535 12.2913 104.354 12.8863 103.991 13.419C103.64 13.9517 103.102 14.3767 102.376 14.694C101.651 15.0113 100.767 15.17 99.7242 15.17ZM110.42 4.97H106.476V3.1H116.574V4.97H112.63V15H110.42V4.97ZM119.677 3.1H121.887V15H119.677V3.1ZM132.059 15.17C130.858 15.17 129.77 14.9093 128.795 14.388C127.832 13.8553 127.072 13.1243 126.517 12.195C125.973 11.2657 125.701 10.2173 125.701 9.05C125.701 7.88267 125.979 6.83433 126.534 5.905C127.089 4.97567 127.849 4.25033 128.812 3.729C129.787 3.19633 130.875 2.93 132.076 2.93C133.051 2.93 133.94 3.1 134.745 3.44C135.55 3.78 136.23 4.273 136.785 4.919L135.357 6.262C134.496 5.33267 133.436 4.868 132.178 4.868C131.362 4.868 130.631 5.04933 129.985 5.412C129.339 5.76333 128.835 6.25633 128.472 6.891C128.109 7.52567 127.928 8.24533 127.928 9.05C127.928 9.85467 128.109 10.5743 128.472 11.209C128.835 11.8437 129.339 12.3423 129.985 12.705C130.631 13.0563 131.362 13.232 132.178 13.232C133.436 13.232 134.496 12.7617 135.357 11.821L136.785 13.181C136.23 13.827 135.544 14.32 134.728 14.66C133.923 15 133.034 15.17 132.059 15.17Z" fill="white"/>
<path d="M53.348 23.2C54.6173 23.2 55.616 23.5033 56.344 24.11C57.072 24.7167 57.436 25.552 57.436 26.616C57.436 27.68 57.072 28.5153 56.344 29.122C55.616 29.7287 54.6173 30.032 53.348 30.032H50.926V33H49.526V23.2H53.348ZM53.306 28.814C54.1927 28.814 54.8693 28.6273 55.336 28.254C55.8027 27.8713 56.036 27.3253 56.036 26.616C56.036 25.9067 55.8027 25.3653 55.336 24.992C54.8693 24.6093 54.1927 24.418 53.306 24.418H50.926V28.814H53.306ZM65.6281 29.332C65.6281 29.4347 65.6187 29.57 65.6001 29.738H59.5801C59.6641 30.3913 59.9487 30.9187 60.4341 31.32C60.9287 31.712 61.5401 31.908 62.2681 31.908C63.1547 31.908 63.8687 31.6093 64.4101 31.012L65.1521 31.88C64.8161 32.272 64.3961 32.5707 63.8921 32.776C63.3974 32.9813 62.8421 33.084 62.2261 33.084C61.4421 33.084 60.7467 32.9253 60.1401 32.608C59.5334 32.2813 59.0621 31.8287 58.7261 31.25C58.3994 30.6713 58.2361 30.018 58.2361 29.29C58.2361 28.5713 58.3947 27.9227 58.7121 27.344C59.0387 26.7653 59.4821 26.3173 60.0421 26C60.6114 25.6733 61.2507 25.51 61.9601 25.51C62.6694 25.51 63.2994 25.6733 63.8501 26C64.4101 26.3173 64.8441 26.7653 65.1521 27.344C65.4694 27.9227 65.6281 28.5853 65.6281 29.332ZM61.9601 26.644C61.3161 26.644 60.7747 26.84 60.3361 27.232C59.9067 27.624 59.6547 28.1373 59.5801 28.772H64.3401C64.2654 28.1467 64.0087 27.638 63.5701 27.246C63.1407 26.8447 62.6041 26.644 61.9601 26.644ZM76.0571 25.58V33H74.8391V27.582L72.0671 32.16H71.4791L68.7351 27.568V33H67.5031V25.58H68.8891L71.8011 30.592L74.7971 25.58H76.0571ZM81.641 33.084C80.9037 33.084 80.241 32.9207 79.653 32.594C79.065 32.2673 78.603 31.8193 78.267 31.25C77.9403 30.6713 77.777 30.018 77.777 29.29C77.777 28.562 77.9403 27.9133 78.267 27.344C78.603 26.7653 79.065 26.3173 79.653 26C80.241 25.6733 80.9037 25.51 81.641 25.51C82.3784 25.51 83.0364 25.6733 83.615 26C84.203 26.3173 84.6604 26.7653 84.987 27.344C85.323 27.9133 85.491 28.562 85.491 29.29C85.491 30.018 85.323 30.6713 84.987 31.25C84.6604 31.8193 84.203 32.2673 83.615 32.594C83.0364 32.9207 82.3784 33.084 81.641 33.084ZM81.641 31.908C82.117 31.908 82.5417 31.8007 82.915 31.586C83.2977 31.362 83.5964 31.054 83.811 30.662C84.0257 30.2607 84.133 29.8033 84.133 29.29C84.133 28.7767 84.0257 28.324 83.811 27.932C83.5964 27.5307 83.2977 27.2227 82.915 27.008C82.5417 26.7933 82.117 26.686 81.641 26.686C81.165 26.686 80.7357 26.7933 80.353 27.008C79.9797 27.2227 79.681 27.5307 79.457 27.932C79.2423 28.324 79.135 28.7767 79.135 29.29C79.135 29.8033 79.2423 30.2607 79.457 30.662C79.681 31.054 79.9797 31.362 80.353 31.586C80.7357 31.8007 81.165 31.908 81.641 31.908ZM87.2218 25.58H88.5658V28.73H92.7938V25.58H94.1378V33H92.7938V29.892H88.5658V33H87.2218V25.58ZM102.071 26.756H99.3551V33H98.0111V26.756H95.2951V25.58H102.071V26.756ZM111.839 29.15C112.8 29.3927 113.281 29.9947 113.281 30.956C113.281 31.6093 113.034 32.1133 112.539 32.468C112.054 32.8227 111.326 33 110.355 33H106.785V25.58H110.229C111.106 25.58 111.792 25.748 112.287 26.084C112.782 26.4107 113.029 26.8773 113.029 27.484C113.029 27.876 112.922 28.2167 112.707 28.506C112.502 28.786 112.212 29.0007 111.839 29.15ZM108.101 28.772H110.117C110.63 28.772 111.018 28.6787 111.279 28.492C111.55 28.3053 111.685 28.0347 111.685 27.68C111.685 26.9707 111.162 26.616 110.117 26.616H108.101V28.772ZM110.257 31.964C110.817 31.964 111.237 31.8753 111.517 31.698C111.797 31.5207 111.937 31.2453 111.937 30.872C111.937 30.4893 111.806 30.2047 111.545 30.018C111.293 29.8313 110.892 29.738 110.341 29.738H108.101V31.964H110.257ZM117.821 25.51C118.847 25.51 119.631 25.762 120.173 26.266C120.723 26.77 120.999 27.5213 120.999 28.52V33H119.725V32.02C119.501 32.3653 119.179 32.6313 118.759 32.818C118.348 32.9953 117.858 33.084 117.289 33.084C116.458 33.084 115.791 32.8833 115.287 32.482C114.792 32.0807 114.545 31.5533 114.545 30.9C114.545 30.2467 114.783 29.724 115.259 29.332C115.735 28.9307 116.491 28.73 117.527 28.73H119.655V28.464C119.655 27.8853 119.487 27.442 119.151 27.134C118.815 26.826 118.32 26.672 117.667 26.672C117.228 26.672 116.799 26.7467 116.379 26.896C115.959 27.036 115.604 27.2273 115.315 27.47L114.755 26.462C115.137 26.154 115.595 25.9207 116.127 25.762C116.659 25.594 117.223 25.51 117.821 25.51ZM117.513 32.048C118.026 32.048 118.469 31.936 118.843 31.712C119.216 31.4787 119.487 31.152 119.655 30.732V29.696H117.583C116.444 29.696 115.875 30.0787 115.875 30.844C115.875 31.2173 116.019 31.5113 116.309 31.726C116.598 31.9407 116.999 32.048 117.513 32.048ZM123.209 25.58H124.553V28.73H128.781V25.58H130.125V33H128.781V29.892H124.553V33H123.209V25.58ZM132.528 25.58H133.872V28.73H138.1V25.58H139.444V33H138.1V29.892H133.872V33H132.528V25.58ZM145.193 28.1C146.127 28.1093 146.841 28.324 147.335 28.744C147.83 29.164 148.077 29.7567 148.077 30.522C148.077 31.3247 147.807 31.9453 147.265 32.384C146.733 32.8133 145.968 33.0233 144.969 33.014L141.847 33V25.58H143.191V28.086L145.193 28.1ZM149.183 25.58H150.527V33H149.183V25.58ZM144.871 31.992C145.478 32.0013 145.935 31.88 146.243 31.628C146.561 31.376 146.719 31.0027 146.719 30.508C146.719 30.0227 146.565 29.668 146.257 29.444C145.949 29.22 145.487 29.1033 144.871 29.094L143.191 29.066V31.978L144.871 31.992ZM157.564 33L155.422 30.158L153.252 33H151.754L154.68 29.206L151.894 25.58H153.392L155.436 28.254L157.466 25.58H158.936L156.136 29.206L159.09 33H157.564ZM166.728 29.864H165.188V33H163.844V25.58H165.188V28.716H166.756L169.164 25.58H170.606L167.792 29.15L170.802 33H169.22L166.728 29.864ZM174.934 33.084C174.196 33.084 173.534 32.9207 172.946 32.594C172.358 32.2673 171.896 31.8193 171.56 31.25C171.233 30.6713 171.07 30.018 171.07 29.29C171.07 28.562 171.233 27.9133 171.56 27.344C171.896 26.7653 172.358 26.3173 172.946 26C173.534 25.6733 174.196 25.51 174.934 25.51C175.671 25.51 176.329 25.6733 176.908 26C177.496 26.3173 177.953 26.7653 178.28 27.344C178.616 27.9133 178.784 28.562 178.784 29.29C178.784 30.018 178.616 30.6713 178.28 31.25C177.953 31.8193 177.496 32.2673 176.908 32.594C176.329 32.9207 175.671 33.084 174.934 33.084ZM174.934 31.908C175.41 31.908 175.834 31.8007 176.208 31.586C176.59 31.362 176.889 31.054 177.104 30.662C177.318 30.2607 177.426 29.8033 177.426 29.29C177.426 28.7767 177.318 28.324 177.104 27.932C176.889 27.5307 176.59 27.2227 176.208 27.008C175.834 26.7933 175.41 26.686 174.934 26.686C174.458 26.686 174.028 26.7933 173.646 27.008C173.272 27.2227 172.974 27.5307 172.75 27.932C172.535 28.324 172.428 28.7767 172.428 29.29C172.428 29.8033 172.535 30.2607 172.75 30.662C172.974 31.054 173.272 31.362 173.646 31.586C174.028 31.8007 174.458 31.908 174.934 31.908ZM189.068 25.58V33H187.85V27.582L185.078 32.16H184.49L181.746 27.568V33H180.514V25.58H181.9L184.812 30.592L187.808 25.58H189.068ZM191.474 25.58H192.818V28.73H197.046V25.58H198.39V33H197.046V29.892H192.818V33H191.474V25.58ZM203.439 25.51C204.466 25.51 205.25 25.762 205.791 26.266C206.342 26.77 206.617 27.5213 206.617 28.52V33H205.343V32.02C205.119 32.3653 204.797 32.6313 204.377 32.818C203.967 32.9953 203.477 33.084 202.907 33.084C202.077 33.084 201.409 32.8833 200.905 32.482C200.411 32.0807 200.163 31.5533 200.163 30.9C200.163 30.2467 200.401 29.724 200.877 29.332C201.353 28.9307 202.109 28.73 203.145 28.73H205.273V28.464C205.273 27.8853 205.105 27.442 204.769 27.134C204.433 26.826 203.939 26.672 203.285 26.672C202.847 26.672 202.417 26.7467 201.997 26.896C201.577 27.036 201.223 27.2273 200.933 27.47L200.373 26.462C200.756 26.154 201.213 25.9207 201.745 25.762C202.277 25.594 202.842 25.51 203.439 25.51ZM203.131 32.048C203.645 32.048 204.088 31.936 204.461 31.712C204.835 31.4787 205.105 31.152 205.273 30.732V29.696H203.201C202.063 29.696 201.493 30.0787 201.493 30.844C201.493 31.2173 201.638 31.5113 201.927 31.726C202.217 31.9407 202.618 32.048 203.131 32.048ZM214.358 26.756H211.642V33H210.298V26.756H207.582V25.58H214.358V26.756Z" fill="white"/>
<path d="M33.1875 14.7656V5.83594C33.1875 2.61795 30.5696 0 27.3516 0C24.1336 0 21.5156 2.61795 21.5156 5.83594H24.3281C24.3281 4.16883 25.6845 2.8125 27.3516 2.8125C29.0187 2.8125 30.375 4.16883 30.375 5.83594V14.7656H24.2104C24.2857 14.5933 24.3281 14.4032 24.3281 14.2031C24.3281 13.4265 23.6985 12.7969 22.9219 12.7969C22.1452 12.7969 21.5156 13.4265 21.5156 14.2031C21.5156 14.4032 21.5581 14.5933 21.6334 14.7656H0V18C0 25.8932 4.88742 30.353 9.01709 32.1877C8.09072 33.1908 7.52344 34.5302 7.52344 36H10.3359C10.3359 34.4492 11.5976 33.1875 13.1484 33.1875H22.8516C24.4024 33.1875 25.6641 34.4492 25.6641 36H28.4766C28.4766 34.5302 27.9093 33.1908 26.9829 32.1877C31.1126 30.353 36 25.8932 36 18V14.7656H33.1875ZM33.1875 18C33.1875 22.9288 30.9129 25.9381 29.0049 27.5947C26.6719 29.6202 24.0787 30.375 22.9922 30.375H13.0078C11.9213 30.375 9.32815 29.6202 6.99511 27.5947C5.08711 25.9381 2.8125 22.9288 2.8125 18V17.5781H33.1875V18Z" fill="white"/>
<path d="M22.9219 10.6875C23.6985 10.6875 24.3281 10.0579 24.3281 9.28125C24.3281 8.5046 23.6985 7.875 22.9219 7.875C22.1452 7.875 21.5156 8.5046 21.5156 9.28125C21.5156 10.0579 22.1452 10.6875 22.9219 10.6875Z" fill="white"/>
</svg>
