<svg width="91" height="38" fill="none" xmlns="http://www.w3.org/2000/svg"><path stroke="#fff" d="M.5 1.262h90v35.707H.5z"/><path d="M21.492 15.148l3.049 7.476 3.035-7.476h.877l-3.552 8.52h-.732l-3.553-8.52h.877zm16.545 7.776v.744h-5.724v-8.52h5.616v.744h-4.776v3.072h4.164v.708h-4.164v3.252h4.884zm4.229.744v-8.52h.84v7.776h4.92v.744h-5.76zm15.36-.744v.744h-5.724v-8.52h5.616v.744h-4.776v3.072h4.164v.708h-4.164v3.252h4.884zm9.032-6.18a2.593 2.593 0 00-.96-.66 3.505 3.505 0 00-1.368-.252c-.752 0-1.3.143-1.644.431-.344.28-.516.664-.516 1.152 0 .257.044.469.132.637.096.16.24.3.432.42a3 3 0 00.732.311c.304.088.66.176 1.068.264.456.096.864.204 1.224.325.368.12.68.271.936.456.256.175.452.392.588.648.136.256.204.576.204.96 0 .392-.076.732-.228 1.02a2.033 2.033 0 01-.636.72 2.922 2.922 0 01-.972.432 5.423 5.423 0 01-1.236.131c-1.32 0-2.46-.412-3.42-1.236l.42-.683c.152.16.332.311.54.456.216.143.452.271.708.384.264.104.544.188.84.252.296.056.608.084.936.084.68 0 1.208-.12 1.584-.36.384-.248.576-.62.576-1.116 0-.264-.056-.485-.168-.66a1.286 1.286 0 00-.48-.468 3.279 3.279 0 00-.804-.348 16.97 16.97 0 00-1.116-.288 13.19 13.19 0 01-1.176-.325 3.135 3.135 0 01-.852-.42 1.708 1.708 0 01-.528-.6c-.112-.24-.168-.532-.168-.876 0-.392.072-.74.216-1.044.152-.311.364-.567.636-.768.272-.208.592-.364.96-.468a4.193 4.193 0 011.224-.168c.568 0 1.072.088 1.512.264.448.168.852.408 1.212.72l-.408.672z" fill="#fff"/></svg>