<svg width="215" height="36" fill="none" xmlns="http://www.w3.org/2000/svg"><path d="M57.316 12.246h-5.95L50.193 15h-2.278L53.27 3.1h2.176L60.818 15h-2.312l-1.19-2.754zm-.731-1.734L54.341 5.31l-2.227 5.202h4.471zM71.562 15l-2.43-3.485a4.542 4.542 0 01-.46.017h-2.686V15h-2.21V3.1h4.896c1.032 0 1.927.17 2.686.51.771.34 1.36.827 1.768 1.462.408.635.612 1.388.612 2.261 0 .895-.22 1.666-.663 2.312-.43.646-1.054 1.128-1.87 1.445L73.942 15h-2.38zm-.05-7.667c0-.76-.25-1.343-.749-1.751-.498-.408-1.23-.612-2.193-.612h-2.584v4.743h2.584c.964 0 1.695-.204 2.193-.612.5-.42.748-1.009.748-1.768zm8.392-2.363H75.96V3.1h10.098v1.87h-3.944V15h-2.21V4.97zm9.258-1.87h2.21V15h-2.21V3.1zm10.562 12.07c-.918 0-1.807-.13-2.669-.391-.85-.26-1.524-.606-2.023-1.037l.765-1.717c.488.385 1.083.703 1.785.952a6.738 6.738 0 002.142.357c.884 0 1.542-.142 1.972-.425.442-.283.663-.657.663-1.122 0-.34-.124-.618-.374-.833a2.416 2.416 0 00-.918-.527 20.674 20.674 0 00-1.53-.425c-.906-.215-1.643-.43-2.21-.646a3.742 3.742 0 01-1.445-1.003c-.396-.465-.595-1.088-.595-1.87 0-.657.176-1.252.527-1.785.363-.544.901-.975 1.615-1.292.726-.317 1.61-.476 2.652-.476a8.5 8.5 0 012.142.272c.703.181 1.309.442 1.819.782l-.697 1.717a6.865 6.865 0 00-1.632-.697 6.1 6.1 0 00-1.649-.238c-.872 0-1.524.147-1.955.442-.42.295-.629.686-.629 1.173 0 .34.12.618.357.833.25.215.561.385.935.51s.884.266 1.53.425c.884.204 1.61.42 2.176.646.567.215 1.049.55 1.445 1.003.408.453.612 1.065.612 1.836a3.1 3.1 0 01-.544 1.785c-.351.533-.889.958-1.615 1.275-.725.317-1.609.476-2.652.476zm10.696-10.2h-3.944V3.1h10.098v1.87h-3.944V15h-2.21V4.97zm9.257-1.87h2.21V15h-2.21V3.1zm12.382 12.07c-1.201 0-2.289-.26-3.264-.782a5.967 5.967 0 01-2.278-2.193c-.544-.93-.816-1.978-.816-3.145s.278-2.216.833-3.145a5.843 5.843 0 012.278-2.176c.975-.533 2.063-.799 3.264-.799.975 0 1.864.17 2.669.51.805.34 1.485.833 2.04 1.479l-1.428 1.343c-.861-.93-1.921-1.394-3.179-1.394-.816 0-1.547.181-2.193.544a3.801 3.801 0 00-1.513 1.479c-.363.635-.544 1.354-.544 2.159 0 .805.181 1.524.544 2.159a3.92 3.92 0 001.513 1.496c.646.351 1.377.527 2.193.527 1.258 0 2.318-.47 3.179-1.411l1.428 1.36a5.413 5.413 0 01-2.057 1.479c-.805.34-1.694.51-2.669.51zM53.348 23.2c1.27 0 2.268.303 2.996.91.728.607 1.092 1.442 1.092 2.506 0 1.064-.364 1.9-1.092 2.506-.728.607-1.727.91-2.996.91h-2.422V33h-1.4v-9.8h3.822zm-.042 5.614c.887 0 1.563-.187 2.03-.56.467-.383.7-.929.7-1.638 0-.71-.233-1.25-.7-1.624-.467-.383-1.143-.574-2.03-.574h-2.38v4.396h2.38zm12.322.518c0 .103-.01.238-.028.406h-6.02c.084.653.369 1.18.854 1.582.495.392 1.106.588 1.834.588.887 0 1.6-.299 2.142-.896l.742.868a3.24 3.24 0 01-1.26.896 4.31 4.31 0 01-1.666.308c-.784 0-1.48-.159-2.086-.476a3.539 3.539 0 01-1.414-1.358c-.327-.579-.49-1.232-.49-1.96 0-.719.159-1.367.476-1.946A3.473 3.473 0 0160.042 26a3.784 3.784 0 011.918-.49c.71 0 1.34.163 1.89.49.56.317.994.765 1.302 1.344.317.579.476 1.241.476 1.988zm-3.668-2.688c-.644 0-1.185.196-1.624.588-.43.392-.681.905-.756 1.54h4.76c-.075-.625-.331-1.134-.77-1.526-.43-.401-.966-.602-1.61-.602zm14.097-1.064V33H74.84v-5.418l-2.772 4.578h-.588l-2.744-4.592V33h-1.232v-7.42h1.386l2.912 5.012 2.996-5.012h1.26zm5.584 7.504c-.737 0-1.4-.163-1.988-.49a3.62 3.62 0 01-1.386-1.344c-.327-.579-.49-1.232-.49-1.96s.163-1.377.49-1.946A3.49 3.49 0 0179.653 26c.588-.327 1.25-.49 1.988-.49.737 0 1.395.163 1.974.49a3.396 3.396 0 011.372 1.344c.336.57.504 1.218.504 1.946s-.168 1.381-.504 1.96a3.518 3.518 0 01-1.372 1.344c-.579.327-1.237.49-1.974.49zm0-1.176c.476 0 .9-.107 1.274-.322.383-.224.681-.532.896-.924a2.86 2.86 0 00.322-1.372c0-.513-.107-.966-.322-1.358a2.25 2.25 0 00-.896-.924 2.509 2.509 0 00-1.274-.322c-.476 0-.905.107-1.288.322a2.373 2.373 0 00-.896.924c-.215.392-.322.845-.322 1.358 0 .513.107.97.322 1.372.224.392.523.7.896.924.383.215.812.322 1.288.322zm5.58-6.328h1.345v3.15h4.228v-3.15h1.344V33h-1.344v-3.108h-4.228V33h-1.344v-7.42zm14.85 1.176h-2.716V33h-1.344v-6.244h-2.716V25.58h6.776v1.176zm9.768 2.394c.961.243 1.442.845 1.442 1.806 0 .653-.247 1.157-.742 1.512-.485.355-1.213.532-2.184.532h-3.57v-7.42h3.444c.877 0 1.563.168 2.058.504.495.327.742.793.742 1.4 0 .392-.107.733-.322 1.022-.205.28-.495.495-.868.644zm-3.738-.378h2.016c.513 0 .901-.093 1.162-.28.271-.187.406-.457.406-.812 0-.71-.523-1.064-1.568-1.064h-2.016v2.156zm2.156 3.192c.56 0 .98-.089 1.26-.266.28-.177.42-.453.42-.826 0-.383-.131-.667-.392-.854-.252-.187-.653-.28-1.204-.28h-2.24v2.226h2.156zm7.564-6.454c1.026 0 1.81.252 2.352.756.55.504.826 1.255.826 2.254V33h-1.274v-.98a2.162 2.162 0 01-.966.798c-.411.177-.901.266-1.47.266-.831 0-1.498-.2-2.002-.602-.495-.401-.742-.929-.742-1.582s.238-1.176.714-1.568c.476-.401 1.232-.602 2.268-.602h2.128v-.266c0-.579-.168-1.022-.504-1.33-.336-.308-.831-.462-1.484-.462-.439 0-.868.075-1.288.224a3.21 3.21 0 00-1.064.574l-.56-1.008a3.97 3.97 0 011.372-.7 5.59 5.59 0 011.694-.252zm-.308 6.538c.513 0 .956-.112 1.33-.336a2 2 0 00.812-.98v-1.036h-2.072c-1.139 0-1.708.383-1.708 1.148 0 .373.144.667.434.882.289.215.69.322 1.204.322zm5.696-6.468h1.344v3.15h4.228v-3.15h1.344V33h-1.344v-3.108h-4.228V33h-1.344v-7.42zm9.319 0h1.344v3.15h4.228v-3.15h1.344V33H138.1v-3.108h-4.228V33h-1.344v-7.42zm12.665 2.52c.934.01 1.648.224 2.142.644.495.42.742 1.013.742 1.778 0 .803-.27 1.423-.812 1.862-.532.43-1.297.64-2.296.63L141.847 33v-7.42h1.344v2.506l2.002.014zm3.99-2.52h1.344V33h-1.344v-7.42zm-4.312 6.412c.607.01 1.064-.112 1.372-.364.318-.252.476-.625.476-1.12 0-.485-.154-.84-.462-1.064-.308-.224-.77-.34-1.386-.35l-1.68-.028v2.912l1.68.014zM157.564 33l-2.142-2.842-2.17 2.842h-1.498l2.926-3.794-2.786-3.626h1.498l2.044 2.674 2.03-2.674h1.47l-2.8 3.626L159.09 33h-1.526zm9.164-3.136h-1.54V33h-1.344v-7.42h1.344v3.136h1.568l2.408-3.136h1.442l-2.814 3.57 3.01 3.85h-1.582l-2.492-3.136zm8.206 3.22c-.738 0-1.4-.163-1.988-.49a3.62 3.62 0 01-1.386-1.344c-.327-.579-.49-1.232-.49-1.96s.163-1.377.49-1.946A3.49 3.49 0 01172.946 26c.588-.327 1.25-.49 1.988-.49.737 0 1.395.163 1.974.49a3.398 3.398 0 011.372 1.344c.336.57.504 1.218.504 1.946s-.168 1.381-.504 1.96a3.521 3.521 0 01-1.372 1.344c-.579.327-1.237.49-1.974.49zm0-1.176c.476 0 .9-.107 1.274-.322.382-.224.681-.532.896-.924.214-.401.322-.859.322-1.372 0-.513-.108-.966-.322-1.358a2.257 2.257 0 00-.896-.924 2.51 2.51 0 00-1.274-.322c-.476 0-.906.107-1.288.322a2.368 2.368 0 00-.896.924c-.215.392-.322.845-.322 1.358 0 .513.107.97.322 1.372.224.392.522.7.896.924.382.215.812.322 1.288.322zm14.134-6.328V33h-1.218v-5.418l-2.772 4.578h-.588l-2.744-4.592V33h-1.232v-7.42h1.386l2.912 5.012 2.996-5.012h1.26zm2.406 0h1.344v3.15h4.228v-3.15h1.344V33h-1.344v-3.108h-4.228V33h-1.344v-7.42zm11.965-.07c1.027 0 1.811.252 2.352.756.551.504.826 1.255.826 2.254V33h-1.274v-.98a2.162 2.162 0 01-.966.798c-.41.177-.9.266-1.47.266-.83 0-1.498-.2-2.002-.602-.494-.401-.742-.929-.742-1.582s.238-1.176.714-1.568c.476-.401 1.232-.602 2.268-.602h2.128v-.266c0-.579-.168-1.022-.504-1.33-.336-.308-.83-.462-1.484-.462a3.83 3.83 0 00-1.288.224 3.22 3.22 0 00-1.064.574l-.56-1.008c.383-.308.84-.541 1.372-.7a5.595 5.595 0 011.694-.252zm-.308 6.538c.514 0 .957-.112 1.33-.336.374-.233.644-.56.812-.98v-1.036h-2.072c-1.138 0-1.708.383-1.708 1.148 0 .373.145.667.434.882.29.215.691.322 1.204.322zm11.227-5.292h-2.716V33h-1.344v-6.244h-2.716V25.58h6.776v1.176zm-181.17-11.99v-8.93A5.842 5.842 0 0027.352 0a5.843 5.843 0 00-5.836 5.836h2.812a3.027 3.027 0 013.024-3.024 3.027 3.027 0 013.023 3.024v8.93H24.21a1.406 1.406 0 10-2.577 0H0V18c0 7.893 4.887 12.353 9.017 14.188A5.603 5.603 0 007.523 36h2.813a2.816 2.816 0 012.812-2.813h9.704A2.816 2.816 0 0125.664 36h2.813c0-1.47-.568-2.81-1.494-3.812C31.113 30.353 36 25.893 36 18v-3.234h-2.813zm0 3.234c0 4.929-2.275 7.938-4.183 9.595-2.333 2.025-4.926 2.78-6.013 2.78h-9.984c-1.087 0-3.68-.755-6.013-2.78C5.087 25.938 2.812 22.929 2.812 18v-.422h30.375V18z" fill="#fff"/><path d="M22.922 10.688a1.406 1.406 0 100-2.813 1.406 1.406 0 000 2.813z" fill="#fff"/></svg>